<svg width="130" height="104" viewBox="0 0 130 104" fill="none" xmlns="http://www.w3.org/2000/svg">
<path d="M22.5673 66.4079C10.1037 55.5256 8.41974 36.2625 18.806 23.3826C29.1923 10.5027 47.7158 8.88341 60.1794 19.7657L102.961 57.1195L65.3487 103.762L22.5673 66.4079Z" fill="#EE0000"/>
<path d="M107.644 66.2399C119.991 55.1852 121.431 35.8761 110.862 23.1118C100.292 10.3475 81.7143 8.96159 69.3675 20.0163L27.194 57.7763L65.4707 104L107.644 66.2399Z" fill="#EE0000"/>
<rect x="14.9519" y="28" width="31" height="8.74557" transform="rotate(19.7264 14.9519 28)" fill="#4D4D4D"/>
<rect x="91" y="39.4386" width="26.976" height="7.74877" transform="rotate(-9.47052 91 39.4386)" fill="#4D4D4D"/>
<rect x="34" y="32" width="31" height="19" fill="#4D4D4D"/>
<rect x="77" y="32" width="31" height="19" fill="#4D4D4D"/>
<rect x="49" y="38" width="31" height="7" fill="#4D4D4D"/>
</svg>
